<svg xmlns="http://www.w3.org/2000/svg" viewBox="0 0 512 512">
  <rect width="512" height="512" rx="112" fill="#172126"/>
  <circle cx="256" cy="256" r="164" fill="#d8efe7"/>
  <path fill="#d1603d" d="M151 285c0-59 43-103 105-103s105 44 105 103v34c0 8-6 14-14 14h-38c-8 0-14-6-14-14v-34c0-24-15-42-39-42s-39 18-39 42v34c0 8-6 14-14 14h-38c-8 0-14-6-14-14v-34Z"/>
  <path fill="#172126" d="M158 197c0-36 28-64 66-64h64c38 0 66 28 66 64 0 8-6 14-14 14h-39c-7 0-12-5-14-12-4-12-15-20-30-20h-2c-15 0-26 8-30 20-2 7-7 12-14 12h-39c-8 0-14-6-14-14Z"/>
</svg>
